<?xml version="1.0" encoding="UTF-8"?>
<svg id="Layer_1" xmlns="http://www.w3.org/2000/svg" version="1.1" viewBox="205 205 840 840">
  <!-- Generator: Adobe Illustrator 29.7.1, SVG Export Plug-In . SVG Version: 2.1.1 Build 8)  -->
  <defs>
    <style>
      .st0 {
        fill: #fb3a3b;
      }
    </style>
  </defs>
  <path class="st0" d="M551,757.3c-5.6-11.7-3.5-26.2,6.2-35.9,12.4-12.4,32.4-12.4,44.7,0,12.4,12.4,12.4,32.4,0,44.7-9.7,9.7-24.2,11.8-35.9,6.2l-125.9,125.9c29.4-.8,58.5-.7,87.4.3l191.1-191.1c-5.6-11.7-3.5-26.2,6.2-35.9,12.4-12.4,32.4-12.4,44.7,0,12.4,12.4,12.4,32.4,0,44.7-9.7,9.7-24.2,11.8-35.9,6.2l-177.3,177.3c33.3,1.8,66.2,4.7,98.7,8.8l59.9-59.9c-5.6-11.7-3.5-26.2,6.2-35.9,12.4-12.4,32.4-12.4,44.7,0,12.4,12.4,12.4,32.4,0,44.7-9.7,9.7-24.2,11.8-35.9,6.2l-48.4,48.4c87.3,12.9,171.9,34.6,253.4,65.8-95.4-229.3-112.6-465-9.6-706L315.1,906.2c31.6-3.2,62.9-5.5,93.9-6.9l142.1-142Z"/>
</svg>