<?xml version="1.0" encoding="UTF-8"?>
<svg id="Layer_1" xmlns="http://www.w3.org/2000/svg" version="1.1" viewBox="0 0 1963.1 259">
  <!-- Generator: Adobe Illustrator 29.7.1, SVG Export Plug-In . SVG Version: 2.1.1 Build 8)  -->
  <defs>
    <style>
      .st0 {
        fill: #fb3a3b;
      }

      .st1 {
        fill: #073358;
      }
    </style>
  </defs>
  <g>
    <path class="st0" d="M739.5,309.7l-9.6-16.9h-4.1v16.9h-8.7v-43.4h16.3c3.4,0,6.2.6,8.6,1.8s4.1,2.8,5.3,4.8c1.2,2,1.8,4.3,1.8,6.8s-.8,5.4-2.5,7.7c-1.7,2.3-4.1,3.9-7.4,4.8l10.4,17.6h-10.1ZM725.8,286.3h7.3c2.4,0,4.1-.6,5.3-1.7,1.2-1.1,1.7-2.7,1.7-4.8s-.6-3.5-1.7-4.6c-1.2-1.1-2.9-1.6-5.3-1.6h-7.3v12.8Z"/>
    <path class="st0" d="M785.5,301.5h-17.3l-2.9,8.3h-9.2l15.6-43.5h10.1l15.6,43.5h-9.2l-2.9-8.3ZM783.1,294.5l-6.3-18.2-6.3,18.2h12.6Z"/>
    <path class="st0" d="M806.1,276.5c1.9-3.4,4.6-6,7.9-7.9,3.3-1.9,7.1-2.8,11.2-2.8s9.1,1.2,12.8,3.7c3.7,2.5,6.2,5.9,7.7,10.3h-10c-1-2.1-2.4-3.6-4.2-4.7-1.8-1-3.9-1.6-6.3-1.6s-4.8.6-6.8,1.8c-2,1.2-3.5,2.9-4.6,5-1.1,2.2-1.6,4.7-1.6,7.6s.5,5.4,1.6,7.6c1.1,2.2,2.6,3.9,4.6,5,2,1.2,4.2,1.8,6.8,1.8s4.5-.5,6.3-1.6c1.8-1.1,3.2-2.6,4.2-4.7h10c-1.5,4.4-4,7.9-7.6,10.4-3.6,2.5-7.9,3.7-12.8,3.7s-7.9-.9-11.2-2.8c-3.3-1.9-6-4.5-7.9-7.9-1.9-3.4-2.9-7.2-2.9-11.5s1-8.1,2.9-11.5Z"/>
    <path class="st0" d="M863.7,273.3v10.9h14.6v6.9h-14.6v11.5h16.5v7.1h-25.2v-43.5h25.2v7.1h-16.5Z"/>
    <path class="st0" d="M913.4,308.6c-2.4-1-4.3-2.5-5.8-4.5-1.4-2-2.1-4.3-2.2-6.9h9.3c.1,1.8.8,3.2,1.9,4.2,1.1,1,2.7,1.6,4.7,1.6s3.6-.5,4.8-1.5c1.2-1,1.7-2.3,1.7-3.8s-.4-2.3-1.2-3.2c-.8-.8-1.8-1.5-3-2-1.2-.5-2.8-1-4.9-1.6-2.8-.8-5.1-1.6-6.9-2.5-1.8-.8-3.3-2-4.5-3.7-1.3-1.6-1.9-3.8-1.9-6.6s.6-4.8,1.9-6.7c1.3-1.9,3.1-3.4,5.4-4.4,2.3-1,5-1.5,8-1.5,4.5,0,8.1,1.1,10.9,3.3,2.8,2.2,4.3,5.2,4.6,9.1h-9.6c0-1.5-.7-2.7-1.9-3.7-1.2-1-2.7-1.5-4.7-1.5s-3.1.4-4.1,1.3c-1,.9-1.5,2.1-1.5,3.8s.4,2.1,1.2,2.9c.8.8,1.7,1.4,2.9,1.9,1.1.5,2.7,1,4.8,1.6,2.8.8,5.1,1.7,6.9,2.5,1.8.8,3.3,2.1,4.6,3.7,1.3,1.7,1.9,3.8,1.9,6.5s-.6,4.5-1.8,6.5c-1.2,2-3,3.6-5.3,4.8-2.3,1.2-5.1,1.8-8.3,1.8s-5.8-.5-8.2-1.6Z"/>
    <path class="st0" d="M947.2,276.5c1.9-3.4,4.6-6,7.9-7.9,3.3-1.9,7.1-2.8,11.2-2.8s9.1,1.2,12.8,3.7c3.7,2.5,6.2,5.9,7.7,10.3h-10c-1-2.1-2.4-3.6-4.2-4.7-1.8-1-3.9-1.6-6.3-1.6s-4.8.6-6.8,1.8c-2,1.2-3.5,2.9-4.6,5-1.1,2.2-1.6,4.7-1.6,7.6s.5,5.4,1.6,7.6c1.1,2.2,2.6,3.9,4.6,5,2,1.2,4.2,1.8,6.8,1.8s4.5-.5,6.3-1.6c1.8-1.1,3.2-2.6,4.2-4.7h10c-1.5,4.4-4,7.9-7.6,10.4-3.6,2.5-7.9,3.7-12.8,3.7s-7.9-.9-11.2-2.8c-3.3-1.9-6-4.5-7.9-7.9-1.9-3.4-2.9-7.2-2.9-11.5s1-8.1,2.9-11.5Z"/>
    <path class="st0" d="M1005,307.3c-3.4-1.9-6.1-4.6-8.1-7.9-2-3.4-3-7.2-3-11.5s1-8,3-11.4c2-3.4,4.7-6,8.1-7.9,3.4-1.9,7.1-2.9,11.2-2.9s7.9,1,11.2,2.9c3.4,1.9,6.1,4.6,8,7.9,2,3.4,3,7.2,3,11.4s-1,8.1-3,11.5c-2,3.4-4.7,6-8.1,7.9-3.4,1.9-7.1,2.9-11.2,2.9s-7.8-1-11.2-2.9ZM1023.1,300.6c2-1.2,3.5-2.9,4.7-5.1,1.1-2.2,1.7-4.8,1.7-7.7s-.6-5.4-1.7-7.6c-1.1-2.2-2.7-3.8-4.7-5-2-1.2-4.3-1.7-6.9-1.7s-4.9.6-6.9,1.7c-2,1.2-3.6,2.8-4.7,5-1.1,2.2-1.7,4.7-1.7,7.6s.6,5.5,1.7,7.7c1.1,2.2,2.7,3.9,4.7,5.1,2,1.2,4.3,1.8,6.9,1.8s4.9-.6,6.9-1.8Z"/>
    <path class="st0" d="M1069.2,309.7l-9.6-16.9h-4.1v16.9h-8.7v-43.4h16.3c3.4,0,6.2.6,8.6,1.8s4.1,2.8,5.3,4.8c1.2,2,1.8,4.3,1.8,6.8s-.8,5.4-2.5,7.7c-1.7,2.3-4.1,3.9-7.4,4.8l10.4,17.6h-10.1ZM1055.5,286.3h7.3c2.4,0,4.1-.6,5.3-1.7,1.2-1.1,1.7-2.7,1.7-4.8s-.6-3.5-1.7-4.6c-1.2-1.1-2.9-1.6-5.3-1.6h-7.3v12.8Z"/>
    <path class="st0" d="M1097.3,266.3v43.4h-8.7v-43.4h8.7Z"/>
    <path class="st0" d="M1144.9,309.7h-8.7l-19.7-29.8v29.8h-8.7v-43.5h8.7l19.7,29.9v-29.9h8.7v43.5Z"/>
    <path class="st0" d="M1185.6,279.4c-1-1.8-2.4-3.2-4.1-4.2-1.7-1-3.8-1.4-6.1-1.4s-4.9.6-6.8,1.7c-2,1.2-3.5,2.8-4.7,5-1.1,2.2-1.7,4.6-1.7,7.5s.6,5.4,1.7,7.6c1.1,2.2,2.7,3.8,4.8,5,2,1.2,4.4,1.7,7.1,1.7s6-.9,8.2-2.6c2.1-1.8,3.5-4.2,4.2-7.4h-14.9v-6.7h23.5v7.6c-.6,3-1.8,5.8-3.7,8.4-1.9,2.6-4.4,4.6-7.4,6.2-3,1.6-6.4,2.3-10.1,2.3s-8-.9-11.4-2.8c-3.4-1.9-6-4.5-8-7.9-1.9-3.4-2.9-7.2-2.9-11.5s1-8.1,2.9-11.5c1.9-3.4,4.6-6,8-7.9,3.4-1.9,7.1-2.8,11.3-2.8s9.2,1.2,12.8,3.6c3.6,2.4,6.1,5.7,7.5,10.1h-10Z"/>
    <path class="st0" d="M1251.3,266.3v7h-11.6v36.4h-8.7v-36.4h-11.6v-7h31.9Z"/>
    <path class="st0" d="M1295.5,266.3v43.4h-8.7v-18.5h-18.6v18.5h-8.7v-43.4h8.7v17.9h18.6v-17.9h8.7Z"/>
    <path class="st0" d="M1332.6,301.5h-17.3l-2.9,8.3h-9.2l15.6-43.5h10.1l15.6,43.5h-9.2l-2.9-8.3ZM1330.3,294.5l-6.3-18.2-6.3,18.2h12.6Z"/>
    <path class="st0" d="M1382,266.3v7h-11.6v36.4h-8.7v-36.4h-11.6v-7h31.9Z"/>
    <path class="st0" d="M1433.5,301.5h-17.3l-2.9,8.3h-9.2l15.6-43.5h10.1l15.6,43.5h-9.2l-2.9-8.3ZM1431.2,294.5l-6.3-18.2-6.3,18.2h12.6Z"/>
    <path class="st0" d="M1490.5,309.7h-8.7l-19.7-29.8v29.8h-8.7v-43.5h8.7l19.7,29.9v-29.9h8.7v43.5Z"/>
    <path class="st0" d="M1535.5,266.3l-14.7,28.3v15.1h-8.7v-15.1l-14.8-28.3h9.8l9.3,19.9,9.3-19.9h9.7Z"/>
    <path class="st0" d="M1551.4,307.3c-3.4-1.9-6.1-4.6-8.1-7.9-2-3.4-3-7.2-3-11.5s1-8,3-11.4c2-3.4,4.7-6,8.1-7.9,3.4-1.9,7.1-2.9,11.2-2.9s7.9,1,11.2,2.9c3.4,1.9,6.1,4.6,8,7.9,2,3.4,3,7.2,3,11.4s-1,8.1-3,11.5c-2,3.4-4.7,6-8.1,7.9-3.4,1.9-7.1,2.9-11.2,2.9s-7.8-1-11.2-2.9ZM1569.5,300.6c2-1.2,3.5-2.9,4.7-5.1,1.1-2.2,1.7-4.8,1.7-7.7s-.6-5.4-1.7-7.6c-1.1-2.2-2.7-3.8-4.7-5-2-1.2-4.3-1.7-6.9-1.7s-4.9.6-6.9,1.7c-2,1.2-3.6,2.8-4.7,5-1.1,2.2-1.7,4.7-1.7,7.6s.6,5.5,1.7,7.7c1.1,2.2,2.7,3.9,4.7,5.1,2,1.2,4.3,1.8,6.9,1.8s4.9-.6,6.9-1.8Z"/>
    <path class="st0" d="M1630.3,309.7h-8.7l-19.7-29.8v29.8h-8.7v-43.5h8.7l19.7,29.9v-29.9h8.7v43.5Z"/>
    <path class="st0" d="M1649.5,273.3v10.9h14.6v6.9h-14.6v11.5h16.5v7.1h-25.2v-43.5h25.2v7.1h-16.5Z"/>
    <path class="st0" d="M1693.2,276.5c1.9-3.4,4.6-6,7.9-7.9,3.3-1.9,7.1-2.8,11.2-2.8s9.1,1.2,12.8,3.7c3.7,2.5,6.2,5.9,7.7,10.3h-10c-1-2.1-2.4-3.6-4.2-4.7-1.8-1-3.9-1.6-6.3-1.6s-4.8.6-6.8,1.8c-2,1.2-3.5,2.9-4.6,5-1.1,2.2-1.6,4.7-1.6,7.6s.5,5.4,1.6,7.6c1.1,2.2,2.6,3.9,4.6,5,2,1.2,4.2,1.8,6.8,1.8s4.5-.5,6.3-1.6c1.8-1.1,3.2-2.6,4.2-4.7h10c-1.5,4.4-4,7.9-7.6,10.4-3.6,2.5-7.9,3.7-12.8,3.7s-7.9-.9-11.2-2.8c-3.3-1.9-6-4.5-7.9-7.9-1.9-3.4-2.9-7.2-2.9-11.5s1-8.1,2.9-11.5Z"/>
    <path class="st0" d="M1768.7,301.5h-17.3l-2.9,8.3h-9.2l15.6-43.5h10.1l15.6,43.5h-9.2l-2.9-8.3ZM1766.4,294.5l-6.3-18.2-6.3,18.2h12.6Z"/>
    <path class="st0" d="M1825.7,309.7h-8.7l-19.7-29.8v29.8h-8.7v-43.5h8.7l19.7,29.9v-29.9h8.7v43.5Z"/>
    <path class="st0" d="M1861.4,266.3v26.9c0,2.9.8,5.2,2.3,6.8,1.5,1.6,3.7,2.3,6.5,2.3s5-.8,6.5-2.3c1.5-1.6,2.3-3.8,2.3-6.8v-26.9h8.8v26.8c0,3.7-.8,6.8-2.4,9.4-1.6,2.6-3.7,4.5-6.4,5.8-2.7,1.3-5.7,1.9-8.9,1.9s-6.2-.6-8.8-1.9c-2.6-1.3-4.7-3.2-6.3-5.8-1.5-2.6-2.3-5.7-2.3-9.4v-26.8h8.7Z"/>
    <path class="st0" d="M1904.9,308.6c-2.4-1-4.3-2.5-5.8-4.5-1.4-2-2.1-4.3-2.2-6.9h9.3c.1,1.8.8,3.2,1.9,4.2,1.1,1,2.7,1.6,4.7,1.6s3.6-.5,4.8-1.5c1.2-1,1.7-2.3,1.7-3.8s-.4-2.3-1.2-3.2c-.8-.8-1.8-1.5-3-2-1.2-.5-2.8-1-4.9-1.6-2.8-.8-5.1-1.6-6.9-2.5-1.8-.8-3.3-2-4.5-3.7-1.3-1.6-1.9-3.8-1.9-6.6s.6-4.8,1.9-6.7c1.3-1.9,3.1-3.4,5.4-4.4,2.3-1,5-1.5,8-1.5,4.5,0,8.1,1.1,10.9,3.3,2.8,2.2,4.3,5.2,4.6,9.1h-9.6c0-1.5-.7-2.7-1.9-3.7-1.2-1-2.7-1.5-4.7-1.5s-3.1.4-4.1,1.3c-1,.9-1.5,2.1-1.5,3.8s.4,2.1,1.2,2.9c.8.8,1.7,1.4,2.9,1.9,1.1.5,2.7,1,4.8,1.6,2.8.8,5.1,1.7,6.9,2.5,1.8.8,3.3,2.1,4.6,3.7,1.3,1.7,1.9,3.8,1.9,6.5s-.6,4.5-1.8,6.5c-1.2,2-3,3.6-5.3,4.8-2.3,1.2-5.1,1.8-8.3,1.8s-5.8-.5-8.2-1.6Z"/>
    <path class="st0" d="M1946.6,273.3v10.9h14.6v6.9h-14.6v11.5h16.5v7.1h-25.2v-43.5h25.2v7.1h-16.5Z"/>
  </g>
  <g>
    <path class="st1" d="M887.8,176.5c0,6.2-.8,11.8-2.4,16.7-1.6,4.9-3.6,9.3-6.2,13.1-2.6,3.8-5.6,7-9,9.6-3.5,2.7-7,4.8-10.7,6.5-3.7,1.7-7.5,2.9-11.3,3.7-3.8.8-7.4,1.2-10.8,1.2h-121v-31.4h121c6,0,10.7-1.8,14-5.3,3.3-3.5,5-8.3,5-14.2s-.4-5.5-1.3-8c-.9-2.4-2.2-4.5-3.8-6.3-1.6-1.8-3.7-3.1-6-4.1-2.4-1-5-1.4-7.9-1.4h-72.1c-5.1,0-10.5-.9-16.4-2.7-5.9-1.8-11.3-4.7-16.3-8.7-5-4-9.2-9.3-12.5-15.8-3.3-6.5-5-14.5-5-23.9s1.7-17.3,5-23.8c3.3-6.5,7.5-11.7,12.5-15.8,5-4.1,10.5-7,16.3-8.8,5.9-1.8,11.3-2.7,16.4-2.7h106.7v31.4h-106.7c-5.9,0-10.6,1.8-13.9,5.4-3.3,3.6-5,8.4-5,14.4s1.7,10.8,5,14.3c3.3,3.5,8,5.2,13.9,5.2h72.4c3.4,0,7,.5,10.7,1.4,3.8.8,7.5,2.2,11.3,3.9,3.7,1.8,7.3,4,10.7,6.7,3.4,2.7,6.4,5.9,9,9.7,2.6,3.8,4.7,8.1,6.2,13,1.5,4.9,2.3,10.5,2.3,16.6Z"/>
    <path class="st1" d="M1068.7,227.4h-113.1c-2.9,0-6-.3-9.3-1-3.3-.7-6.6-1.7-9.9-3.2-3.3-1.4-6.4-3.3-9.3-5.6-3-2.3-5.6-5.1-7.9-8.3-2.3-3.3-4.1-7-5.5-11.3-1.4-4.3-2.1-9.1-2.1-14.5v-84.9c0-2.9.3-6,1-9.3.7-3.3,1.7-6.6,3.2-9.9,1.4-3.3,3.3-6.4,5.7-9.3,2.3-3,5.1-5.6,8.4-7.9,3.3-2.3,7-4.1,11.3-5.5,4.3-1.4,9.1-2,14.5-2h113.1v31.4h-113.1c-4.1,0-7.2,1.1-9.4,3.3-2.2,2.2-3.3,5.4-3.3,9.6v84.7c0,4,1.1,7.1,3.3,9.3,2.2,2.2,5.3,3.3,9.3,3.3h113.1v31.4Z"/>
    <path class="st1" d="M1277.3,157.4c0,10.5-1.8,20.2-5.4,29.1-3.6,8.8-8.6,16.5-15.1,22.9-6.4,6.4-14.1,11.4-22.9,15-8.8,3.6-18.4,5.4-28.8,5.4h-42.4c-10.4,0-20-1.8-28.8-5.4-8.8-3.6-16.5-8.6-22.9-15-6.4-6.4-11.5-14.1-15.1-22.9-3.7-8.8-5.5-18.5-5.5-29.1v-33c0-10.4,1.8-20.1,5.5-29,3.7-8.9,8.7-16.5,15.1-22.9,6.4-6.4,14.1-11.4,22.9-15,8.8-3.6,18.4-5.4,28.8-5.4h42.4c10.4,0,20,1.8,28.8,5.4,8.8,3.6,16.4,8.6,22.9,15,6.4,6.4,11.5,14,15.1,22.9,3.6,8.9,5.4,18.6,5.4,29v33ZM1246,124.4c0-6.2-1-11.8-3-16.8-2-5-4.7-9.3-8.3-12.9-3.6-3.6-7.9-6.4-12.9-8.3-5-2-10.6-3-16.6-3h-42.4c-6.1,0-11.7,1-16.7,3-5,2-9.3,4.7-13,8.3-3.6,3.6-6.4,7.9-8.4,12.9-2,5-3,10.6-3,16.8v33c0,6.2,1,11.8,3,16.8,2,5,4.8,9.3,8.4,12.9,3.6,3.6,7.9,6.4,13,8.3,5,2,10.6,3,16.7,3h42.2c6.1,0,11.7-1,16.7-3,5-2,9.3-4.7,13-8.3,3.6-3.6,6.4-7.9,8.4-12.9,2-5,3-10.6,3-16.8v-33Z"/>
    <path class="st1" d="M1481.1,112.6c0,7.2-.9,13.5-2.7,19.2-1.8,5.6-4.2,10.6-7.2,14.9-3,4.3-6.5,8-10.4,11-3.9,3.1-8.1,5.6-12.4,7.5-4.3,2-8.6,3.4-13,4.3-4.4.9-8.5,1.3-12.4,1.3l65.5,56.6h-48.5l-65.4-56.6h-22.5v-31.4h70.9c3.9-.3,7.5-1.1,10.8-2.5,3.3-1.3,6.1-3.1,8.4-5.4,2.4-2.2,4.2-5,5.5-8.1,1.3-3.2,1.9-6.8,1.9-10.9v-19.8c0-1.8-.2-3.1-.7-4-.4-.9-1-1.6-1.7-2-.7-.4-1.4-.7-2.2-.8-.8,0-1.5-.1-2.1-.1h-103.5v141.6h-31.4V70.2c0-2.2.4-4.2,1.2-6.1.8-1.9,1.9-3.6,3.3-5.1,1.4-1.4,3.1-2.6,5-3.4,1.9-.8,4-1.2,6.3-1.2h119c7,0,12.9,1.3,17.7,3.8,4.8,2.5,8.7,5.7,11.8,9.5,3,3.8,5.2,7.9,6.5,12.4,1.3,4.4,2,8.6,2,12.4v20Z"/>
    <path class="st1" d="M1544.2,227.4h-31.4V54.4h31.4v172.9Z"/>
    <path class="st1" d="M1753.7,214c0,2.3-.4,4.3-1.3,6.3-.8,1.9-2,3.6-3.4,5-1.4,1.4-3.1,2.5-5,3.3-1.9.8-4,1.2-6.1,1.2s-3.9-.4-5.9-1.1c-2-.7-3.7-1.9-5.2-3.5l-114.6-119.6v121.8h-31.4V67.8c0-3.2.9-6.1,2.7-8.7,1.8-2.6,4.1-4.6,6.9-5.8,3-1.2,6-1.5,9.2-.9,3.1.6,5.8,2.1,8.1,4.4l114.6,119.5V54.4h31.4v159.5Z"/>
    <path class="st1" d="M1960.7,211.6c0,2.3-.4,4.3-1.2,6.3-.8,1.9-1.9,3.6-3.3,5-1.4,1.4-3.1,2.5-5,3.3-1.9.8-4,1.2-6.3,1.2h-113.1c-2.9,0-6-.3-9.3-1-3.3-.7-6.6-1.7-9.9-3.2-3.3-1.4-6.4-3.3-9.3-5.6-3-2.3-5.6-5.1-7.9-8.3-2.3-3.3-4.1-7-5.5-11.3-1.4-4.3-2.1-9.1-2.1-14.5v-84.9c0-2.9.3-6,1-9.3.7-3.3,1.7-6.6,3.2-9.9,1.4-3.3,3.3-6.4,5.7-9.3,2.3-3,5.1-5.6,8.4-7.9,3.3-2.3,7-4.1,11.3-5.5,4.3-1.4,9.1-2,14.5-2h127.5v31.4h-127.5c-4.1,0-7.2,1.1-9.4,3.3-2.2,2.2-3.3,5.4-3.3,9.6v84.7c0,4,1.1,7.1,3.3,9.3,2.2,2.2,5.3,3.3,9.3,3.3h97.6v-39.3h-83.5v-31.6h99c2.2,0,4.3.4,6.3,1.3,1.9.8,3.6,2,5,3.4,1.4,1.4,2.5,3.1,3.3,5,.8,1.9,1.2,3.9,1.2,6.1v70.7Z"/>
  </g>
  <g>
    <path class="st1" d="M172.8,176.5c0,6.2-.8,11.8-2.4,16.7-1.6,4.9-3.6,9.3-6.2,13.1-2.6,3.8-5.6,7-9,9.6-3.5,2.7-7,4.8-10.7,6.5-3.7,1.7-7.5,2.9-11.3,3.7-3.8.8-7.4,1.2-10.8,1.2H1.4v-31.4h121c6,0,10.7-1.8,14-5.3,3.3-3.5,5-8.3,5-14.2s-.4-5.5-1.3-8c-.9-2.4-2.2-4.5-3.8-6.3-1.6-1.8-3.7-3.1-6-4.1-2.4-1-5-1.4-7.9-1.4H50.3c-5.1,0-10.5-.9-16.4-2.7-5.9-1.8-11.3-4.7-16.3-8.7-5-4-9.2-9.3-12.5-15.8-3.3-6.5-5-14.5-5-23.9s1.7-17.3,5-23.8c3.3-6.5,7.5-11.7,12.5-15.8,5-4.1,10.5-7,16.3-8.8,5.9-1.8,11.3-2.7,16.4-2.7h106.7v31.4H50.3c-5.9,0-10.6,1.8-13.9,5.4s-5,8.4-5,14.4,1.7,10.8,5,14.3c3.3,3.5,8,5.2,13.9,5.2h72.4c3.4,0,7,.5,10.7,1.4,3.8.8,7.5,2.2,11.3,3.9,3.7,1.8,7.3,4,10.7,6.7,3.4,2.7,6.4,5.9,9,9.7,2.6,3.8,4.7,8.1,6.2,13,1.5,4.9,2.3,10.5,2.3,16.6Z"/>
    <path class="st1" d="M436.5,227.4h-31.4V54.5h31.4v172.9Z"/>
    <path class="st1" d="M632,227.4h-143c-2.3,0-4.3-.4-6.3-1.2-1.9-.8-3.6-1.9-5-3.3-1.4-1.4-2.5-3.1-3.3-5-.8-1.9-1.2-4-1.2-6.3V54.5h31.4v141.6h127.5v31.4Z"/>
    <path class="st0" d="M257.8,174.8c-2-4.2-1.3-9.4,2.2-12.9,4.4-4.4,11.7-4.4,16.1,0,4.4,4.4,4.4,11.7,0,16.1-3.5,3.5-8.7,4.2-12.9,2.2l-45.4,45.4c10.6-.3,21.1-.2,31.5.1l68.9-68.9c-2-4.2-1.3-9.4,2.2-12.9,4.4-4.4,11.7-4.4,16.1,0,4.4,4.4,4.4,11.7,0,16.1-3.5,3.5-8.7,4.2-12.9,2.2l-63.9,63.9c12,.6,23.8,1.7,35.6,3.2l21.6-21.6c-2-4.2-1.3-9.4,2.2-12.9,4.4-4.4,11.7-4.4,16.1,0,4.4,4.4,4.4,11.7,0,16.1-3.5,3.5-8.7,4.2-12.9,2.2l-17.5,17.5c31.5,4.7,61.9,12.5,91.3,23.7-34.4-82.6-40.6-167.5-3.4-254.3l-219.8,228.5c11.4-1.2,22.6-2,33.8-2.5l51.2-51.2Z"/>
  </g>
</svg>